<?xml version="1.0" encoding="utf-8"?>
<!-- Generator: Adobe Illustrator 22.1.0, SVG Export Plug-In . SVG Version: 6.00 Build 0)  -->
<svg version="1.1" xmlns="http://www.w3.org/2000/svg" xmlns:xlink="http://www.w3.org/1999/xlink" x="0px" y="0px"
	 viewBox="0 0 80 39.8" style="enable-background:new 0 0 80 39.8;" xml:space="preserve">
<style type="text/css">
	.st0{fill:#67C28F;}
	.st1{fill:#FFFFFF;}
	.st2{fill:none;stroke:#FFFFFF;stroke-width:0.6;stroke-linecap:round;stroke-miterlimit:10;}
	.st3{display:none;}
	.st4{display:inline;}
	.st5{fill:#636466;}
</style>
<g id="base">
	<path class="st0" d="M78.9,13C73.7-0.8,58.4-1.6,48.8,1.5c-6,1.9-10.3,5.2-10.3,5.2c-4.2,3.2-7.2,4.1-7.2,4.1
		c-5.3,1.4-14.6,1.7-14.6,1.7s-21,0.5-16,19.3c7.9,16.9,31,1.7,31,1.7s4.7-4,8.8-4.5c4.1-0.5,9.7,1.1,9.7,1.1
		c15.2,4.7,23.3-1.6,23.3-1.6c-5-6.1-5-8.3-5-8.3c2.9-2.5,10.6-6.6,10.6-6.6L78.9,13z"/>
	<path class="st0" d="M79.8,15.9c0,0,1.7,6.4-4.7,11.4L70.4,21L79.8,15.9z"/>
	<ellipse class="st1" cx="75.8" cy="21.9" rx="1.7" ry="1.2"/>
	<path class="st0" d="M34.3,32.9c0,0,3.1-2.6,5.2-3c2.1-0.3,5.5,0,5.5,0L34.3,32.9z"/>
	<path class="st2" d="M10.5,17.5c0,0-8.4,3.6-5.8,12.3c2.8,7.6,8.9,6.7,8.9,6.7"/>
	<line class="st2" x1="8.4" y1="21.2" x2="3.6" y2="19.9"/>
	<line class="st2" x1="7.7" y1="25.7" x2="1.1" y2="26"/>
	<line class="st2" x1="8.6" y1="30.4" x2="2.8" y2="32.9"/>
	<path class="st2" d="M11.5,33.8C11.3,33.8,7.2,37,7.2,37"/>
	<path class="st2" d="M58.9,29.5c0,0,7-1,9.9-5.1"/>
	<line class="st2" x1="65.8" y1="23.1" x2="69.4" y2="29.2"/>
	<line class="st2" x1="61.3" y1="25.2" x2="64.6" y2="30.5"/>
	<path class="st2" d="M42.7,7.9c0,0,23.1-12.8,33.1,5.8"/>
	<line class="st2" x1="70" y1="14.6" x2="76.5" y2="10.7"/>
	<line class="st2" x1="67.7" y1="9.1" x2="71.6" y2="4.9"/>
	<line class="st2" x1="63.9" y1="6.7" x2="65.8" y2="2.2"/>
	<line class="st2" x1="58.1" y1="6.4" x2="59.2" y2="1.2"/>
	<line class="st2" x1="52.1" y1="7.2" x2="53.1" y2="1.2"/>
	<line class="st2" x1="45.9" y1="9.1" x2="46.8" y2="3.1"/>
</g>
<g id="gray" class="st3">
	<g class="st4">
		<path class="st5" d="M12.2,28c-0.1-0.2,0-0.4,0.1-0.5l1.8-2.1c0,0,0.1-0.1,0.1-0.1c0.1,0,0.2,0,0.4,0.1c0.1,0.1,0.2,0.2,0.3,0.4
			c0,0.1,0,0.3-0.1,0.3l-1.4,1.6l2,0.7c0.1,0,0.2,0.1,0.2,0.3c0,0.2,0,0.3-0.1,0.4c-0.1,0.1-0.2,0.2-0.3,0.3c-0.1,0-0.1,0-0.2,0
			l-2.6-1C12.4,28.3,12.2,28.1,12.2,28z"/>
		<path class="st5" d="M16.5,27.4l-0.7-2.6c-0.2-0.7-0.1-1.3,0.1-1.7c0.3-0.4,0.7-0.7,1.3-0.9c0.6-0.2,1.1-0.1,1.6,0.1
			c0.5,0.2,0.8,0.6,0.9,1.1c0.1,0.2,0.1,0.4,0,0.5c-0.1,0.1-0.2,0.2-0.4,0.2c-0.4,0.1-0.6,0-0.7-0.2c0-0.1-0.1-0.1-0.1-0.2
			c0-0.1-0.1-0.1-0.1-0.2c-0.1-0.1-0.1-0.2-0.2-0.2c-0.1,0-0.2-0.1-0.3-0.1c-0.1,0-0.3,0-0.4,0c-0.6,0.2-0.8,0.6-0.6,1.3l0.7,2.6
			c0.2,0.7,0.6,1,1.2,0.8c0.2,0,0.3-0.1,0.4-0.2c0.1-0.1,0.2-0.2,0.2-0.3c0-0.1,0-0.2,0-0.3c0-0.1,0-0.2,0-0.3
			c0-0.3,0.1-0.4,0.5-0.5c0.2-0.1,0.4-0.1,0.5,0c0.1,0.1,0.2,0.2,0.3,0.4c0.1,0.5,0.1,1-0.2,1.5c-0.3,0.4-0.7,0.7-1.4,0.9
			c-0.6,0.2-1.1,0.1-1.6-0.1C17,28.6,16.6,28.1,16.5,27.4z"/>
		<path class="st5" d="M21.3,26.4l-0.2-0.8c-0.1-0.5-0.1-1,0.2-1.5c0.3-0.5,0.7-0.8,1.2-0.9c0.5-0.1,1-0.1,1.5,0.2
			c0.5,0.3,0.8,0.7,0.9,1.2l0.2,0.8c0.1,0.5,0.1,1-0.2,1.5s-0.7,0.8-1.2,0.9c-0.5,0.1-1,0.1-1.5-0.2C21.7,27.2,21.4,26.9,21.3,26.4z
			 M22.4,26.1c0.1,0.2,0.2,0.4,0.4,0.5c0.2,0.1,0.4,0.2,0.6,0.1c0.2-0.1,0.4-0.2,0.5-0.4c0.1-0.2,0.1-0.4,0.1-0.6l-0.2-0.7
			c-0.1-0.2-0.2-0.4-0.4-0.5c-0.2-0.1-0.4-0.2-0.6-0.1c-0.2,0.1-0.4,0.2-0.5,0.4s-0.1,0.4-0.1,0.6L22.4,26.1z"/>
		<path class="st5" d="M25.8,25.2l-0.2-0.8c-0.1-0.5-0.1-1,0.1-1.4c0.2-0.4,0.5-0.7,0.9-0.8c0.3-0.1,0.5-0.1,0.7,0
			c0.2,0.1,0.4,0.2,0.6,0.4l-0.7-2.8c0-0.1,0-0.2,0.1-0.3c0.1-0.1,0.2-0.2,0.4-0.2c0.2,0,0.3,0,0.4,0c0.1,0,0.2,0.1,0.2,0.2l1.6,6.2
			c0,0.1,0,0.2-0.1,0.3c-0.1,0.1-0.2,0.2-0.4,0.2c-0.1,0-0.3,0-0.4,0s-0.2-0.1-0.2-0.2l-0.1-0.3c0,0.2-0.2,0.4-0.3,0.6
			c-0.2,0.2-0.4,0.3-0.7,0.4c-0.4,0.1-0.8,0-1.2-0.3C26.2,26.1,26,25.7,25.8,25.2z M26.9,24.9c0.1,0.2,0.2,0.4,0.4,0.5
			c0.2,0.1,0.4,0.2,0.6,0.1c0.2-0.1,0.4-0.2,0.5-0.4c0.1-0.2,0.2-0.4,0.1-0.5l-0.2-0.9c-0.1-0.2-0.2-0.4-0.4-0.5
			c-0.2-0.1-0.4-0.1-0.6-0.1c-0.2,0.1-0.4,0.2-0.5,0.4c-0.1,0.2-0.1,0.4-0.1,0.6L26.9,24.9z"/>
		<path class="st5" d="M30.5,23.9l-0.2-0.8c-0.1-0.5-0.1-1,0.2-1.4c0.3-0.5,0.7-0.8,1.2-0.9c0.5-0.1,1-0.1,1.4,0.2
			c0.4,0.2,0.7,0.6,0.8,1.1c0,0.2,0.1,0.3,0.1,0.5c0,0.1-0.1,0.2-0.1,0.3c-0.1,0.1-0.2,0.1-0.2,0.2s-0.2,0.1-0.3,0.1l-1.8,0.5l0,0.1
			c0.1,0.3,0.2,0.5,0.4,0.6c0.2,0.1,0.5,0.1,0.8,0.1c0.2-0.1,0.4-0.2,0.6-0.3c0.2-0.2,0.3-0.3,0.4-0.3c0.1,0,0.2,0,0.3,0.1
			c0.1,0.1,0.2,0.2,0.2,0.3c0,0.2-0.1,0.4-0.3,0.6c-0.2,0.2-0.6,0.4-1,0.5c-0.6,0.2-1.2,0.1-1.6-0.1S30.7,24.5,30.5,23.9z
			 M31.4,22.9l1.3-0.3c0.1,0,0.2-0.1,0.2-0.1c0,0,0-0.1,0-0.2c-0.1-0.2-0.2-0.3-0.3-0.4c-0.2-0.1-0.4-0.1-0.6,0
			c-0.2,0.1-0.4,0.2-0.5,0.3c-0.1,0.2-0.1,0.3-0.1,0.5L31.4,22.9z"/>
		<path class="st5" d="M35.1,23.5c0-0.1,0-0.3,0-0.5c0.1-0.2,0.2-0.3,0.3-0.3c0.1,0,0.2,0,0.3,0s0.2,0.1,0.3,0.2
			c0.1,0.1,0.3,0.1,0.5,0.2c0.2,0,0.4,0,0.6,0c0.3-0.1,0.5-0.2,0.6-0.4c0.1-0.2,0.2-0.4,0.1-0.7c0-0.2-0.1-0.3-0.3-0.5
			s-0.3-0.2-0.5-0.3c-0.2-0.1-0.4-0.1-0.6-0.1s-0.4-0.1-0.7-0.1c-0.2-0.1-0.4-0.1-0.6-0.2c-0.2-0.1-0.4-0.2-0.5-0.4
			s-0.3-0.5-0.4-0.7c-0.1-0.3-0.1-0.6,0-0.9c0.1-0.3,0.2-0.5,0.3-0.7c0.2-0.2,0.4-0.4,0.6-0.5c0.2-0.1,0.5-0.2,0.7-0.3
			c0.1,0,0.3-0.1,0.5-0.1c0.2,0,0.4,0,0.6,0c0.2,0,0.4,0,0.5,0.1c0.1,0.1,0.2,0.2,0.3,0.3c0,0.1,0,0.3,0,0.5c0,0.2-0.1,0.3-0.3,0.3
			c-0.1,0-0.2,0-0.5-0.1c-0.3-0.1-0.5,0-0.8,0c-0.3,0.1-0.5,0.2-0.7,0.4c-0.1,0.2-0.2,0.4-0.1,0.6c0,0.2,0.2,0.3,0.3,0.4
			c0.2,0.1,0.4,0.2,0.6,0.2c0.2,0,0.5,0.1,0.7,0.1c0.3,0.1,0.5,0.1,0.8,0.2c0.2,0.1,0.5,0.3,0.7,0.5c0.2,0.2,0.4,0.6,0.5,0.9
			c0.2,0.6,0.1,1.2-0.2,1.6S38,24,37.3,24.1c-0.5,0.1-1,0.1-1.5,0C35.4,24,35.1,23.8,35.1,23.5z"/>
		<path class="st5" d="M40.7,24.9l-1.5-5.6c0-0.1,0-0.2,0.1-0.3c0.1-0.1,0.2-0.2,0.3-0.2s0.3,0,0.4,0c0.1,0,0.2,0.1,0.2,0.2l0.1,0.3
			c0.1-0.2,0.2-0.4,0.3-0.6c0.2-0.2,0.4-0.3,0.6-0.4c0.4-0.1,0.8,0,1.2,0.3c0.4,0.3,0.7,0.7,0.8,1.2l0.2,0.8c0.1,0.5,0.1,1-0.1,1.4
			c-0.2,0.5-0.5,0.7-0.9,0.8c-0.2,0.1-0.5,0.1-0.7,0s-0.4-0.2-0.6-0.4l0.6,2.3c0,0.1,0,0.2-0.1,0.3s-0.2,0.2-0.4,0.2s-0.3,0-0.4,0
			S40.7,25,40.7,24.9z M41,21.3c0,0.1,0.1,0.2,0.3,0.4c0.2,0.1,0.4,0.2,0.6,0.1c0.2-0.1,0.4-0.2,0.5-0.4c0.1-0.2,0.1-0.4,0.1-0.6
			L42.3,20c-0.1-0.2-0.2-0.4-0.4-0.5c-0.2-0.1-0.4-0.2-0.6-0.1c-0.2,0.1-0.3,0.2-0.5,0.4s-0.1,0.4-0.1,0.7L41,21.3z"/>
		<path class="st5" d="M44.9,21.7l-1-3.6c0-0.1,0-0.2,0.1-0.3c0.1-0.1,0.2-0.2,0.4-0.2c0.1,0,0.3,0,0.4,0c0.1,0,0.2,0.1,0.2,0.2
			l0.1,0.4c0-0.2,0.1-0.5,0.3-0.7c0.2-0.2,0.3-0.3,0.6-0.4l0.3-0.1c0.1,0,0.2,0,0.3,0.1c0.1,0.1,0.2,0.2,0.2,0.3c0,0.1,0,0.3,0,0.4
			c-0.1,0.1-0.1,0.2-0.2,0.2l-0.3,0.1c-0.3,0.1-0.5,0.3-0.6,0.6c-0.1,0.3-0.1,0.7,0,1.1l0.4,1.6c0,0.1,0,0.2-0.1,0.3
			c-0.1,0.1-0.2,0.2-0.4,0.2c-0.2,0-0.3,0-0.4,0C45,21.8,44.9,21.8,44.9,21.7z"/>
		<path class="st5" d="M46.8,15.3c0-0.1,0-0.3,0.1-0.4c0.1-0.1,0.2-0.2,0.4-0.3c0.2,0,0.3,0,0.5,0c0.1,0.1,0.2,0.2,0.3,0.3
			c0,0.1,0,0.3-0.1,0.4c-0.1,0.1-0.2,0.2-0.4,0.3c-0.2,0-0.3,0-0.5,0C47,15.5,46.9,15.4,46.8,15.3z M48.4,20.7l-1-3.6
			c0-0.1,0-0.2,0.1-0.3c0.1-0.1,0.2-0.2,0.4-0.2c0.2,0,0.3,0,0.4,0c0.1,0,0.2,0.1,0.2,0.2l1,3.6c0,0.1,0,0.2-0.1,0.3
			c-0.1,0.1-0.2,0.2-0.3,0.2c-0.2,0-0.3,0-0.4,0C48.5,20.9,48.4,20.8,48.4,20.7z"/>
		<path class="st5" d="M50.5,20.2l-1-3.6c0-0.1,0-0.2,0.1-0.3c0.1-0.1,0.2-0.2,0.4-0.2c0.1,0,0.3,0,0.4,0c0.1,0,0.2,0.1,0.2,0.2
			l0.1,0.3c0-0.2,0.1-0.4,0.3-0.6c0.2-0.2,0.4-0.3,0.7-0.4c0.4-0.1,0.8,0,1.2,0.3c0.4,0.3,0.7,0.7,0.8,1.2l0.6,2.2
			c0,0.1,0,0.2-0.1,0.3c-0.1,0.1-0.2,0.2-0.4,0.2c-0.1,0-0.3,0-0.4,0c-0.1,0-0.2-0.1-0.2-0.2l-0.6-2.2c-0.1-0.2-0.2-0.4-0.4-0.5
			c-0.2-0.1-0.4-0.2-0.6-0.1c-0.2,0-0.3,0.2-0.4,0.4c-0.1,0.2-0.1,0.4-0.1,0.7l0.6,2.2c0,0.1,0,0.2-0.1,0.3
			c-0.1,0.1-0.2,0.2-0.4,0.2c-0.2,0-0.3,0-0.4,0S50.6,20.3,50.5,20.2z"/>
		<path class="st5" d="M55,17.8l-1.2-4.4c0-0.1,0-0.2,0.1-0.3c0.1-0.1,0.2-0.2,0.4-0.2c0.1,0,0.3,0,0.4,0c0.1,0,0.2,0.1,0.2,0.2
			l0.4,1.5l1-0.3c0.1,0,0.2,0,0.2,0.1c0.1,0.1,0.1,0.2,0.2,0.3c0,0.1,0,0.2,0,0.3c0,0.1-0.1,0.2-0.2,0.2l-1,0.3l0.5,1.9
			c0,0.2,0.1,0.3,0.2,0.3c0.1,0.1,0.2,0.1,0.4,0l0.3-0.1c0.2,0,0.3,0,0.4,0.1s0.2,0.2,0.2,0.3c0,0.1,0,0.3,0,0.4
			c-0.1,0.1-0.2,0.2-0.3,0.2L57,18.9C55.9,19.2,55.2,18.8,55,17.8z"/>
		<path class="st5" d="M58.3,18.5c0-0.1,0-0.1,0-0.2l1.3-7.5c0-0.1,0.1-0.2,0.3-0.3c0.1,0,0.2,0,0.3,0c0.1,0.1,0.2,0.1,0.2,0.3
			c0,0.1,0,0.1,0,0.2l-1.3,7.5c0,0.2-0.1,0.2-0.3,0.3c-0.1,0-0.2,0-0.3,0C58.4,18.7,58.3,18.6,58.3,18.5z"/>
		<path class="st5" d="M62.6,16.3c0-0.1,0-0.3,0.1-0.3l1.4-1.6l-2-0.7c-0.1,0-0.2-0.1-0.2-0.3c0-0.2,0-0.3,0.1-0.4
			c0.1-0.1,0.2-0.2,0.3-0.3c0.1,0,0.1,0,0.1,0l2.6,1c0.2,0.1,0.3,0.2,0.3,0.4c0,0.2,0,0.4-0.1,0.5l-1.8,2.1c0,0-0.1,0.1-0.1,0.1
			c-0.1,0-0.2,0-0.4-0.1C62.7,16.5,62.7,16.4,62.6,16.3z"/>
	</g>
</g>
<g id="white">
	<g>
		<path class="st1" d="M12.2,28c-0.1-0.2,0-0.4,0.1-0.5l1.8-2.1c0,0,0.1-0.1,0.1-0.1c0.1,0,0.2,0,0.4,0.1c0.1,0.1,0.2,0.2,0.3,0.4
			c0,0.1,0,0.3-0.1,0.3l-1.4,1.6l2,0.7c0.1,0,0.2,0.1,0.2,0.3c0,0.2,0,0.3-0.1,0.4c-0.1,0.1-0.2,0.2-0.3,0.3c-0.1,0-0.1,0-0.2,0
			l-2.6-1C12.4,28.3,12.2,28.1,12.2,28z"/>
		<path class="st1" d="M16.5,27.4l-0.7-2.6c-0.2-0.7-0.1-1.3,0.1-1.7c0.3-0.4,0.7-0.7,1.3-0.9c0.6-0.2,1.1-0.1,1.6,0.1
			c0.5,0.2,0.8,0.6,0.9,1.1c0.1,0.2,0.1,0.4,0,0.5c-0.1,0.1-0.2,0.2-0.4,0.2c-0.4,0.1-0.6,0-0.7-0.2c0-0.1-0.1-0.1-0.1-0.2
			c0-0.1-0.1-0.1-0.1-0.2c-0.1-0.1-0.1-0.2-0.2-0.2c-0.1,0-0.2-0.1-0.3-0.1c-0.1,0-0.3,0-0.4,0c-0.6,0.2-0.8,0.6-0.6,1.3l0.7,2.6
			c0.2,0.7,0.6,1,1.2,0.8c0.2,0,0.3-0.1,0.4-0.2c0.1-0.1,0.2-0.2,0.2-0.3c0-0.1,0-0.2,0-0.3c0-0.1,0-0.2,0-0.3
			c0-0.3,0.1-0.4,0.5-0.5c0.2-0.1,0.4-0.1,0.5,0c0.1,0.1,0.2,0.2,0.3,0.4c0.1,0.5,0.1,1-0.2,1.5c-0.3,0.4-0.7,0.7-1.4,0.9
			c-0.6,0.2-1.1,0.1-1.6-0.1C17,28.6,16.6,28.1,16.5,27.4z"/>
		<path class="st1" d="M21.3,26.4l-0.2-0.8c-0.1-0.5-0.1-1,0.2-1.5c0.3-0.5,0.7-0.8,1.2-0.9c0.5-0.1,1-0.1,1.5,0.2
			c0.5,0.3,0.8,0.7,0.9,1.2l0.2,0.8c0.1,0.5,0.1,1-0.2,1.5s-0.7,0.8-1.2,0.9c-0.5,0.1-1,0.1-1.5-0.2C21.7,27.2,21.4,26.9,21.3,26.4z
			 M22.4,26.1c0.1,0.2,0.2,0.4,0.4,0.5c0.2,0.1,0.4,0.2,0.6,0.1c0.2-0.1,0.4-0.2,0.5-0.4c0.1-0.2,0.1-0.4,0.1-0.6l-0.2-0.7
			c-0.1-0.2-0.2-0.4-0.4-0.5c-0.2-0.1-0.4-0.2-0.6-0.1c-0.2,0.1-0.4,0.2-0.5,0.4s-0.1,0.4-0.1,0.6L22.4,26.1z"/>
		<path class="st1" d="M25.8,25.2l-0.2-0.8c-0.1-0.5-0.1-1,0.1-1.4c0.2-0.4,0.5-0.7,0.9-0.8c0.3-0.1,0.5-0.1,0.7,0
			c0.2,0.1,0.4,0.2,0.6,0.4l-0.7-2.8c0-0.1,0-0.2,0.1-0.3c0.1-0.1,0.2-0.2,0.4-0.2c0.2,0,0.3,0,0.4,0c0.1,0,0.2,0.1,0.2,0.2l1.6,6.2
			c0,0.1,0,0.2-0.1,0.3c-0.1,0.1-0.2,0.2-0.4,0.2c-0.1,0-0.3,0-0.4,0s-0.2-0.1-0.2-0.2l-0.1-0.3c0,0.2-0.2,0.4-0.3,0.6
			c-0.2,0.2-0.4,0.3-0.7,0.4c-0.4,0.1-0.8,0-1.2-0.3C26.2,26.1,26,25.7,25.8,25.2z M26.9,24.9c0.1,0.2,0.2,0.4,0.4,0.5
			c0.2,0.1,0.4,0.2,0.6,0.1c0.2-0.1,0.4-0.2,0.5-0.4c0.1-0.2,0.2-0.4,0.1-0.5l-0.2-0.9c-0.1-0.2-0.2-0.4-0.4-0.5
			c-0.2-0.1-0.4-0.1-0.6-0.1c-0.2,0.1-0.4,0.2-0.5,0.4c-0.1,0.2-0.1,0.4-0.1,0.6L26.9,24.9z"/>
		<path class="st1" d="M30.5,23.9l-0.2-0.8c-0.1-0.5-0.1-1,0.2-1.4c0.3-0.5,0.7-0.8,1.2-0.9c0.5-0.1,1-0.1,1.4,0.2
			c0.4,0.2,0.7,0.6,0.8,1.1c0,0.2,0.1,0.3,0.1,0.5c0,0.1-0.1,0.2-0.1,0.3c-0.1,0.1-0.2,0.1-0.2,0.2s-0.2,0.1-0.3,0.1l-1.8,0.5l0,0.1
			c0.1,0.3,0.2,0.5,0.4,0.6c0.2,0.1,0.5,0.1,0.8,0.1c0.2-0.1,0.4-0.2,0.6-0.3c0.2-0.2,0.3-0.3,0.4-0.3c0.1,0,0.2,0,0.3,0.1
			c0.1,0.1,0.2,0.2,0.2,0.3c0,0.2-0.1,0.4-0.3,0.6c-0.2,0.2-0.6,0.4-1,0.5c-0.6,0.2-1.2,0.1-1.6-0.1S30.7,24.5,30.5,23.9z
			 M31.4,22.9l1.3-0.3c0.1,0,0.2-0.1,0.2-0.1c0,0,0-0.1,0-0.2c-0.1-0.2-0.2-0.3-0.3-0.4c-0.2-0.1-0.4-0.1-0.6,0
			c-0.2,0.1-0.4,0.2-0.5,0.3c-0.1,0.2-0.1,0.3-0.1,0.5L31.4,22.9z"/>
		<path class="st1" d="M35.1,23.5c0-0.1,0-0.3,0-0.5c0.1-0.2,0.2-0.3,0.3-0.3c0.1,0,0.2,0,0.3,0s0.2,0.1,0.3,0.2
			c0.1,0.1,0.3,0.1,0.5,0.2c0.2,0,0.4,0,0.6,0c0.3-0.1,0.5-0.2,0.6-0.4c0.1-0.2,0.2-0.4,0.1-0.7c0-0.2-0.1-0.3-0.3-0.5
			s-0.3-0.2-0.5-0.3c-0.2-0.1-0.4-0.1-0.6-0.1s-0.4-0.1-0.7-0.1c-0.2-0.1-0.4-0.1-0.6-0.2c-0.2-0.1-0.4-0.2-0.5-0.4
			s-0.3-0.5-0.4-0.7c-0.1-0.3-0.1-0.6,0-0.9c0.1-0.3,0.2-0.5,0.3-0.7c0.2-0.2,0.4-0.4,0.6-0.5c0.2-0.1,0.5-0.2,0.7-0.3
			c0.1,0,0.3-0.1,0.5-0.1c0.2,0,0.4,0,0.6,0c0.2,0,0.4,0,0.5,0.1c0.1,0.1,0.2,0.2,0.3,0.3c0,0.1,0,0.3,0,0.5c0,0.2-0.1,0.3-0.3,0.3
			c-0.1,0-0.2,0-0.5-0.1c-0.3-0.1-0.5,0-0.8,0c-0.3,0.1-0.5,0.2-0.7,0.4c-0.1,0.2-0.2,0.4-0.1,0.6c0,0.2,0.2,0.3,0.3,0.4
			c0.2,0.1,0.4,0.2,0.6,0.2c0.2,0,0.5,0.1,0.7,0.1c0.3,0.1,0.5,0.1,0.8,0.2c0.2,0.1,0.5,0.3,0.7,0.5c0.2,0.2,0.4,0.6,0.5,0.9
			c0.2,0.6,0.1,1.2-0.2,1.6S38,24,37.3,24.1c-0.5,0.1-1,0.1-1.5,0C35.4,24,35.1,23.8,35.1,23.5z"/>
		<path class="st1" d="M40.7,24.9l-1.5-5.6c0-0.1,0-0.2,0.1-0.3c0.1-0.1,0.2-0.2,0.3-0.2s0.3,0,0.4,0c0.1,0,0.2,0.1,0.2,0.2l0.1,0.3
			c0.1-0.2,0.2-0.4,0.3-0.6c0.2-0.2,0.4-0.3,0.6-0.4c0.4-0.1,0.8,0,1.2,0.3c0.4,0.3,0.7,0.7,0.8,1.2l0.2,0.8c0.1,0.5,0.1,1-0.1,1.4
			c-0.2,0.5-0.5,0.7-0.9,0.8c-0.2,0.1-0.5,0.1-0.7,0s-0.4-0.2-0.6-0.4l0.6,2.3c0,0.1,0,0.2-0.1,0.3s-0.2,0.2-0.4,0.2s-0.3,0-0.4,0
			S40.7,25,40.7,24.9z M41,21.3c0,0.1,0.1,0.2,0.3,0.4c0.2,0.1,0.4,0.2,0.6,0.1c0.2-0.1,0.4-0.2,0.5-0.4c0.1-0.2,0.1-0.4,0.1-0.6
			L42.3,20c-0.1-0.2-0.2-0.4-0.4-0.5c-0.2-0.1-0.4-0.2-0.6-0.1c-0.2,0.1-0.3,0.2-0.5,0.4s-0.1,0.4-0.1,0.7L41,21.3z"/>
		<path class="st1" d="M44.9,21.7l-1-3.6c0-0.1,0-0.2,0.1-0.3c0.1-0.1,0.2-0.2,0.4-0.2c0.1,0,0.3,0,0.4,0c0.1,0,0.2,0.1,0.2,0.2
			l0.1,0.4c0-0.2,0.1-0.5,0.3-0.7c0.2-0.2,0.3-0.3,0.6-0.4l0.3-0.1c0.1,0,0.2,0,0.3,0.1c0.1,0.1,0.2,0.2,0.2,0.3c0,0.1,0,0.3,0,0.4
			c-0.1,0.1-0.1,0.2-0.2,0.2l-0.3,0.1c-0.3,0.1-0.5,0.3-0.6,0.6c-0.1,0.3-0.1,0.7,0,1.1l0.4,1.6c0,0.1,0,0.2-0.1,0.3
			c-0.1,0.1-0.2,0.2-0.4,0.2c-0.2,0-0.3,0-0.4,0C45,21.8,44.9,21.8,44.9,21.7z"/>
		<path class="st1" d="M46.8,15.3c0-0.1,0-0.3,0.1-0.4c0.1-0.1,0.2-0.2,0.4-0.3c0.2,0,0.3,0,0.5,0c0.1,0.1,0.2,0.2,0.3,0.3
			c0,0.1,0,0.3-0.1,0.4c-0.1,0.1-0.2,0.2-0.4,0.3c-0.2,0-0.3,0-0.5,0C47,15.5,46.9,15.4,46.8,15.3z M48.4,20.7l-1-3.6
			c0-0.1,0-0.2,0.1-0.3c0.1-0.1,0.2-0.2,0.4-0.2c0.2,0,0.3,0,0.4,0c0.1,0,0.2,0.1,0.2,0.2l1,3.6c0,0.1,0,0.2-0.1,0.3
			c-0.1,0.1-0.2,0.2-0.3,0.2c-0.2,0-0.3,0-0.4,0C48.5,20.9,48.4,20.8,48.4,20.7z"/>
		<path class="st1" d="M50.5,20.2l-1-3.6c0-0.1,0-0.2,0.1-0.3c0.1-0.1,0.2-0.2,0.4-0.2c0.1,0,0.3,0,0.4,0c0.1,0,0.2,0.1,0.2,0.2
			l0.1,0.3c0-0.2,0.1-0.4,0.3-0.6c0.2-0.2,0.4-0.3,0.7-0.4c0.4-0.1,0.8,0,1.2,0.3c0.4,0.3,0.7,0.7,0.8,1.2l0.6,2.2
			c0,0.1,0,0.2-0.1,0.3c-0.1,0.1-0.2,0.2-0.4,0.2c-0.1,0-0.3,0-0.4,0c-0.1,0-0.2-0.1-0.2-0.2l-0.6-2.2c-0.1-0.2-0.2-0.4-0.4-0.5
			c-0.2-0.1-0.4-0.2-0.6-0.1c-0.2,0-0.3,0.2-0.4,0.4c-0.1,0.2-0.1,0.4-0.1,0.7l0.6,2.2c0,0.1,0,0.2-0.1,0.3
			c-0.1,0.1-0.2,0.2-0.4,0.2c-0.2,0-0.3,0-0.4,0S50.6,20.3,50.5,20.2z"/>
		<path class="st1" d="M55,17.8l-1.2-4.4c0-0.1,0-0.2,0.1-0.3c0.1-0.1,0.2-0.2,0.4-0.2c0.1,0,0.3,0,0.4,0c0.1,0,0.2,0.1,0.2,0.2
			l0.4,1.5l1-0.3c0.1,0,0.2,0,0.2,0.1c0.1,0.1,0.1,0.2,0.2,0.3c0,0.1,0,0.2,0,0.3c0,0.1-0.1,0.2-0.2,0.2l-1,0.3l0.5,1.9
			c0,0.2,0.1,0.3,0.2,0.3c0.1,0.1,0.2,0.1,0.4,0l0.3-0.1c0.2,0,0.3,0,0.4,0.1s0.2,0.2,0.2,0.3c0,0.1,0,0.3,0,0.4
			c-0.1,0.1-0.2,0.2-0.3,0.2L57,18.9C55.9,19.2,55.2,18.8,55,17.8z"/>
		<path class="st1" d="M58.3,18.5c0-0.1,0-0.1,0-0.2l1.3-7.5c0-0.1,0.1-0.2,0.3-0.3c0.1,0,0.2,0,0.3,0c0.1,0.1,0.2,0.1,0.2,0.3
			c0,0.1,0,0.1,0,0.2l-1.3,7.5c0,0.2-0.1,0.2-0.3,0.3c-0.1,0-0.2,0-0.3,0C58.4,18.7,58.3,18.6,58.3,18.5z"/>
		<path class="st1" d="M62.6,16.3c0-0.1,0-0.3,0.1-0.3l1.4-1.6l-2-0.7c-0.1,0-0.2-0.1-0.2-0.3c0-0.2,0-0.3,0.1-0.4
			c0.1-0.1,0.2-0.2,0.3-0.3c0.1,0,0.1,0,0.1,0l2.6,1c0.2,0.1,0.3,0.2,0.3,0.4c0,0.2,0,0.4-0.1,0.5l-1.8,2.1c0,0-0.1,0.1-0.1,0.1
			c-0.1,0-0.2,0-0.4-0.1C62.7,16.5,62.7,16.4,62.6,16.3z"/>
	</g>
</g>
<g id="black" class="st3">
</g>
</svg>
